<svg width="80" height="80" viewBox="0 0 80 80" fill="none" xmlns="http://www.w3.org/2000/svg">
<g id="Logo-15 2" clip-path="url(#clip0_4544_945)">
<g id="Group">
<g id="Group_2">
<path id="Vector" fill-rule="evenodd" clip-rule="evenodd" d="M68.9278 80H11.0551C4.93806 80 0 75.0438 0 68.9425V11.0575C0 4.93912 4.93806 0 11.0551 0H68.9449C75.0449 0 80 4.93912 80 11.0575V68.9596C79.9829 75.0438 75.0278 80 68.9278 80Z" fill="url(#paint0_linear_4544_945)"/>
<g id="Group_3">
<g id="Group_4">
<g id="Group_5">
<g id="Group_6">
<path id="Vector_2" fill-rule="evenodd" clip-rule="evenodd" d="M33.9643 18.1023H32.2036C31.1779 18.1023 30.3574 17.2818 30.3574 16.2562V12.7348C30.3574 11.7092 31.1779 10.8887 32.2036 10.8887H33.9643C35.9643 10.8887 37.5711 12.5126 37.5711 14.4955C37.5711 16.4955 35.9643 18.1023 33.9643 18.1023Z" fill="white"/>
</g>
<g id="Group_7">
<path id="Vector_3" fill-rule="evenodd" clip-rule="evenodd" d="M46.0502 18.1023H47.8109C48.8365 18.1023 49.657 17.2818 49.657 16.2562V12.7348C49.657 11.7092 48.8365 10.8887 47.8109 10.8887H46.0502C44.0502 10.8887 42.4434 12.5126 42.4434 14.4955C42.4434 16.4955 44.0502 18.1023 46.0502 18.1023Z" fill="white"/>
</g>
</g>
<g id="Group_8">
<path id="Vector_4" d="M53.6402 70.0515H26.3753C24.6317 70.0515 23.2129 68.5985 23.2129 66.7865V14.1369C23.2129 13.6241 23.6231 13.2139 24.136 13.2139H33.6231C34.136 13.2139 34.5462 13.6241 34.5462 14.1369C34.5462 14.6498 34.136 15.06 33.6231 15.06H25.059V66.7865C25.059 67.5558 25.6402 68.1882 26.3582 68.1882H53.6061C54.324 68.1882 54.9052 67.5558 54.9052 66.7865V15.0771H45.6744C45.1616 15.0771 44.7513 14.6669 44.7513 14.154C44.7513 13.6412 45.1616 13.231 45.6744 13.231H55.8454C56.3582 13.231 56.7684 13.6412 56.7684 14.154V66.8036C56.8026 68.5985 55.3838 70.0515 53.6402 70.0515Z" fill="white"/>
</g>
<g id="Group_9">
<path id="Vector_5" d="M55.8798 60.2734H24.1533V69.1281H55.8798V60.2734Z" fill="white"/>
</g>
</g>
<g id="Group_10">
<path id="Vector_6" d="M10.8889 51.1275C10.4444 51.1275 10.0513 50.8027 9.96581 50.3583L7.52137 37.948L6.18803 39.6404C6 39.8626 5.7265 39.9993 5.4359 39.9993H0V38.119H4.99145L7.31624 35.1617C7.53846 34.8711 7.91453 34.7344 8.2906 34.8198C8.64957 34.9053 8.92308 35.1959 8.99145 35.5549L10.8547 45.0421L13.9829 27.5207C14.0684 27.0763 14.4444 26.7515 14.906 26.7344H14.9231C15.3675 26.7344 15.7607 27.0421 15.8462 27.4865L18.2393 38.8369L18.6496 38.2557C18.8205 37.9993 19.1111 37.8455 19.4188 37.8455H24.1538C24.6838 37.8455 25.094 38.2728 25.094 38.7857C25.094 39.2985 24.6667 39.7258 24.1538 39.7258H19.9145L18.547 41.6916C18.3248 41.9993 17.9487 42.1532 17.5897 42.0848C17.2137 42.0164 16.9231 41.7258 16.8547 41.3498L14.9915 32.6489L11.8291 50.3583C11.7436 50.8027 11.3504 51.1275 10.8889 51.1275Z" fill="white"/>
</g>
<g id="Group_11">
<path id="Vector_7" d="M69.1285 51.128C68.6841 51.128 68.2909 50.8203 68.2055 50.3759L64.4961 32.3417L62.5986 41.3844C62.5132 41.7776 62.1884 42.0853 61.7781 42.1366C61.3679 42.1708 60.9747 41.9485 60.8209 41.5896L60.0174 39.7776H56.5986V37.8802H60.6157C60.8892 37.8802 61.1627 37.9998 61.3337 38.2049L63.5901 27.5041C63.6756 27.0596 64.0687 26.752 64.5132 26.752C64.9576 26.752 65.3508 27.0767 65.4362 27.5041L69.1115 45.3844L71.0431 35.5554C71.1115 35.1964 71.385 34.9058 71.7439 34.8203C72.1029 34.7349 72.479 34.8716 72.7183 35.1622L75.0431 38.1195H80.0345V39.9998H74.5815C74.2909 39.9998 74.0174 39.8631 73.8294 39.6408L72.4961 37.9485L70.0516 50.3588C69.9662 50.8203 69.573 51.128 69.1285 51.128Z" fill="white"/>
</g>
<path id="Vector_8" fill-rule="evenodd" clip-rule="evenodd" d="M43.9145 33.5557V25.5898H35.9316V33.5557H27.9658V41.5215H35.9316V49.5044H43.9145V41.5215H51.8804V33.5557H43.9145Z" fill="url(#paint1_linear_4544_945)"/>
<path id="Vector (Stroke)" fill-rule="evenodd" clip-rule="evenodd" d="M35.2822 25.5892C35.2822 25.2309 35.5727 24.9404 35.931 24.9404H43.9139C44.2722 24.9404 44.5627 25.2309 44.5627 25.5892V32.9062H51.8797C52.238 32.9062 52.5285 33.1967 52.5285 33.555V41.5208C52.5285 41.8791 52.238 42.1696 51.8797 42.1696H44.5627V49.5037C44.5627 49.862 44.2722 50.1525 43.9139 50.1525H35.931C35.5727 50.1525 35.2822 49.862 35.2822 49.5037V42.1696H27.9652C27.6069 42.1696 27.3164 41.8791 27.3164 41.5208V33.555C27.3164 33.1967 27.6069 32.9062 27.9652 32.9062H35.2822V25.5892ZM36.5798 26.238V33.555C36.5798 33.9133 36.2893 34.2038 35.931 34.2038H28.6139V40.872H35.931C36.2893 40.872 36.5798 41.1625 36.5798 41.5208V48.855H43.2651V41.5208C43.2651 41.1625 43.5556 40.872 43.9139 40.872H51.2309V34.2038H43.9139C43.5556 34.2038 43.2651 33.9133 43.2651 33.555V26.238H36.5798Z" fill="white"/>
</g>
</g>
</g>
</g>
<defs>
<linearGradient id="paint0_linear_4544_945" x1="39.9907" y1="-0.691442" x2="39.9907" y2="79.1847" gradientUnits="userSpaceOnUse">
<stop stop-color="#29A7ED"/>
<stop offset="1" stop-color="#0D67B2"/>
</linearGradient>
<linearGradient id="paint1_linear_4544_945" x1="39.9255" y1="24.9714" x2="39.9255" y2="51.1389" gradientUnits="userSpaceOnUse">
<stop offset="0.0904523" stop-color="#FF3506"/>
<stop offset="0.8237" stop-color="#FF0B01"/>
<stop offset="1" stop-color="#FF0000"/>
</linearGradient>
<clipPath id="clip0_4544_945">
<rect width="80" height="80" fill="white"/>
</clipPath>
</defs>
</svg>
